<svg width="31" height="31" viewBox="0 0 31 31" fill="none" xmlns="http://www.w3.org/2000/svg">
<path fill-rule="evenodd" clip-rule="evenodd" d="M14.2405 2.93945C20.4981 2.93945 25.5709 8.00023 25.5709 14.243C25.5709 16.9116 24.6439 19.3643 23.0937 21.2979L27.72 25.9145C28.2116 26.4049 28.2116 27.2002 27.72 27.6906C27.2662 28.1434 26.5521 28.1782 26.0582 27.7951L25.9396 27.6906L21.3121 23.0753C19.3739 24.6218 16.9155 25.5466 14.2405 25.5466C7.98293 25.5466 2.91016 20.4858 2.91016 14.243C2.91016 8.00023 7.98293 2.93945 14.2405 2.93945ZM14.2423 5.45154C9.37526 5.45154 5.42977 9.38771 5.42977 14.2432C5.42977 19.0987 9.37526 23.0349 14.2423 23.0349C19.1093 23.0349 23.0548 19.0987 23.0548 14.2432C23.0548 9.38771 19.1093 5.45154 14.2423 5.45154Z" fill="#5DD7FC"/>
</svg>
